<svg
  xmlns="http://www.w3.org/2000/svg"
  viewBox="0 0 130 130"
  fill="none"
>
  <path
    d="M18 72c0-26.51 21.49-48 48-48s48 21.49 48 48"
    stroke="currentColor"
    stroke-width="2.6"
    stroke-linecap="round"
  />
  <path
    d="M18 70c6.5 0 11.75 5.25 11.75 11.75V102H18c-3.31 0-6-2.69-6-6V76c0-3.31 2.69-6 6-6ZM112 70c3.31 0 6 2.69 6 6v20c0 3.31-2.69 6-6 6h-11.75V81.75C100.25 75.25 105.5 70 112 70Z"
    stroke="currentColor"
    stroke-width="2.6"
    stroke-linejoin="round"
  />
  <path
    d="M30 74v24M100 74v24"
    stroke="currentColor"
    stroke-width="2.6"
    stroke-linecap="round"
  />
</svg>
