<svg width="132" height="132" viewBox="0 0 132 132" fill="none" xmlns="http://www.w3.org/2000/svg">
    <path d="M60.875 98.2501C60.875 100.942 63.0577 103.125 65.75 103.125C68.4423 103.125 70.625 100.942 70.625 98.2501H60.875ZM86.875 51.1251C86.875 53.8174 89.0577 56.0001 91.75 56.0001C94.4423 56.0001 96.625 53.8174 96.625 51.1251H86.875ZM34.875 51.1251C34.875 53.8174 37.0577 56.0001 39.75 56.0001C42.4424 56.0001 44.625 53.8174 44.625 51.1251H34.875ZM49.5 93.3751C46.8077 93.3751 44.625 95.5578 44.625 98.2501C44.625 100.942 46.8077 103.125 49.5 103.125V93.3751ZM85.25 103.125C87.9423 103.125 90.125 100.942 90.125 98.2501C90.125 95.5578 87.9423 93.3751 85.25 93.3751V103.125ZM52.75 38.1251H65.75V28.3751H52.75V38.1251ZM65.75 38.1251H78.75V28.3751H65.75V38.1251ZM70.625 98.2501V33.2501H60.875V98.2501H70.625ZM86.875 47.6945V51.1251H96.625V47.6945H86.875ZM34.875 47.6945V51.1251H44.625V47.6945H34.875ZM78.75 38.1251C81.9669 38.1251 83.8356 38.1378 85.1623 38.336C85.759 38.4252 86.0365 38.5268 86.1444 38.5762C86.212 38.607 86.2101 38.6128 86.2224 38.6266L93.4699 32.1042C91.49 29.9045 89.0135 29.0531 86.6027 28.693C84.3894 28.3623 81.6614 28.3751 78.75 28.3751V38.1251ZM96.625 47.6945C96.625 44.4143 96.6335 41.5121 96.352 39.1842C96.0589 36.764 95.3835 34.2304 93.4699 32.1042L86.2224 38.6266C86.24 38.646 86.2959 38.7061 86.3752 38.9194C86.4675 39.1682 86.5812 39.6022 86.6722 40.3554C86.8666 41.9608 86.875 44.1656 86.875 47.6945H96.625ZM52.75 28.3751C49.8385 28.3751 47.1109 28.3623 44.8975 28.693C42.4867 29.0531 40.01 29.9045 38.0303 32.1042L45.2774 38.6266C45.2898 38.6128 45.2883 38.607 45.3558 38.5762C45.4638 38.5268 45.7409 38.4252 46.338 38.336C47.6648 38.1378 49.5332 38.1251 52.75 38.1251V28.3751ZM44.625 47.6945C44.625 44.1656 44.6334 41.9608 44.8277 40.3554C44.9188 39.6022 45.0328 39.1682 45.1249 38.9194C45.2038 38.7061 45.2599 38.646 45.2774 38.6266L38.0303 32.1042C36.1167 34.2304 35.4412 36.764 35.1483 39.1842C34.8666 41.5121 34.875 44.4143 34.875 47.6945H44.625ZM49.5 103.125H85.25V93.3751H49.5V103.125Z" fill="currentColor"/>
    <path d="M130.75 65.75C130.75 96.391 130.75 111.712 121.231 121.231C111.712 130.75 96.391 130.75 65.75 130.75C35.1087 130.75 19.788 130.75 10.2691 121.231C0.749999 111.712 0.75 96.391 0.75 65.75C0.75 35.1087 0.749999 19.788 10.2691 10.2691C19.788 0.749999 35.1087 0.75 65.75 0.75C96.391 0.75 111.712 0.749999 121.231 10.2691C127.56 16.5984 129.681 25.4926 130.392 39.75" stroke="currentColor" stroke-width="1.5" stroke-linecap="round"/>
</svg>
