<svg width="11" height="24" viewBox="0 0 11 24" fill="none" xmlns="http://www.w3.org/2000/svg">
    <path d="M2.45801 19.5561C2.45801 21.0862 3.70282 22.3316 5.23296 22.3316C6.76305 22.3316 8.00787 21.0862 8.00787 19.5561V12.7939H2.45801V19.5561Z" fill="black"/>
    <path d="M8.78512 0H1.68056C0.753938 0 0 0.753891 0 1.68112C0 2.27981 0.315469 2.80659 0.789094 3.10444V3.25622V19.5561C0.789094 22.0065 2.78241 24 5.23284 24C7.68305 24 9.67659 22.0064 9.67659 19.5561V3.25622V3.10444C10.15 2.80659 10.4655 2.27981 10.4655 1.68112C10.4655 0.753891 9.71156 0 8.78512 0ZM8.8785 3.35841V6.87047V19.556C8.8785 21.5695 7.24631 23.2022 5.23284 23.2022C3.21933 23.2022 1.58719 21.5695 1.58719 19.556V6.93394V3.35841V3.14128C1.61794 3.14283 1.64925 3.14363 1.68056 3.14363H8.78512C8.81644 3.14363 8.84737 3.14283 8.8785 3.14128V3.35841ZM9.20166 2.4585H8.8785H1.58719H1.26384C0.986625 2.30977 0.798141 2.01773 0.798141 1.68112C0.798141 1.19311 1.1932 0.798094 1.68061 0.798094H8.78517C9.27239 0.798094 9.66764 1.19311 9.66764 1.68112C9.66759 2.01773 9.47892 2.30977 9.20166 2.4585Z" fill="currentColor"/>
</svg>
