<svg width="24" height="24" viewBox="0 0 24 24" fill="none" xmlns="http://www.w3.org/2000/svg">
    <path d="M6 20V14.5C6 13.6716 6.67157 13 7.5 13H10.5C11.3284 13 12 13.6716 12 14.5V20H18.5C19.3284 20 20 19.3284 20 18.5V10.5H21V18.5C21 19.8807 19.8807 21 18.5 21H5.5C4.11929 21 3 19.8807 3 18.5V10.5H4V18.5C4 19.3284 4.67157 20 5.5 20H6ZM7 20H11V14.5C11 14.2239 10.7761 14 10.5 14H7.5C7.22386 14 7 14.2239 7 14.5V20ZM15 14.5V16.5C15 16.7761 15.2239 17 15.5 17H16.5C16.7761 17 17 16.7761 17 16.5V14.5C17 14.2239 16.7761 14 16.5 14H15.5C15.2239 14 15 14.2239 15 14.5ZM14 14.5C14 13.6716 14.6716 13 15.5 13H16.5C17.3284 13 18 13.6716 18 14.5V16.5C18 17.3284 17.3284 18 16.5 18H15.5C14.6716 18 14 17.3284 14 16.5V14.5ZM6 11H3.5C2.67157 11 2 10.3284 2 9.5V8.69258C2 8.50175 2.03641 8.31268 2.10729 8.1355L4.03576 3.3143C4.11169 3.12448 4.29555 3 4.5 3H19.5C19.7045 3 19.8883 3.12448 19.9642 3.3143L21.8927 8.1355C21.9636 8.31268 22 8.50175 22 8.69258V9.5C22 10.3284 21.3284 11 20.5 11H18C17.6158 11 17.2654 10.8556 17 10.6181C16.7346 10.8556 16.3842 11 16 11H13C12.6158 11 12.2654 10.8556 12 10.6181C11.7346 10.8556 11.3842 11 11 11H8C7.61582 11 7.26538 10.8556 7 10.6181C6.73462 10.8556 6.38418 11 6 11ZM4.83852 4L3.03576 8.50689C3.01214 8.56595 3 8.62897 3 8.69258V9.5C3 9.77614 3.22386 10 3.5 10H6C6.27614 10 6.5 9.77614 6.5 9.5V8.5C6.5 8.22386 6.72386 8 7 8C7.27614 8 7.5 8.22386 7.5 8.5V9.5C7.5 9.77614 7.72386 10 8 10H11C11.2761 10 11.5 9.77614 11.5 9.5V8.5C11.5 8.22386 11.7239 8 12 8C12.2761 8 12.5 8.22386 12.5 8.5V9.5C12.5 9.77614 12.7239 10 13 10H16C16.2761 10 16.5 9.77614 16.5 9.5V8.5C16.5 8.22386 16.7239 8 17 8C17.2761 8 17.5 8.22386 17.5 8.5V9.5C17.5 9.77614 17.7239 10 18 10H20.5C20.7761 10 21 9.77614 21 9.5V8.69258C21 8.62897 20.9879 8.56595 20.9642 8.50689L19.1615 4H4.83852Z" fill="currentColor"/>
</svg>
